<svg width="100" height="103" viewBox="0 0 100 103" fill="none" xmlns="http://www.w3.org/2000/svg">
<path d="M50 60.4159C54.9225 60.4159 58.913 56.4241 58.913 51.5C58.913 46.5759 54.9225 42.5841 50 42.5841C45.0774 42.5841 41.0869 46.5759 41.0869 51.5C41.0869 56.4241 45.0774 60.4159 50 60.4159Z" fill="#61DAFB"/>
<path d="M49.9999 69.7667C76.4135 69.7667 97.826 61.5884 97.826 51.5C97.826 41.4116 76.4135 33.2333 49.9999 33.2333C23.5863 33.2333 2.17383 41.4116 2.17383 51.5C2.17383 61.5884 23.5863 69.7667 49.9999 69.7667Z" stroke="#61DAFB" stroke-width="4"/>
<path d="M34.1857 60.6333C47.3925 83.5155 65.179 97.976 73.9131 92.9318C82.6471 87.8876 79.0212 65.2488 65.8144 42.3666C52.6076 19.4845 34.821 5.02395 26.087 10.0682C17.353 15.1124 20.9788 37.7512 34.1857 60.6333Z" stroke="#61DAFB" stroke-width="4"/>
<path d="M34.1857 42.3667C20.9789 65.2488 17.353 87.8876 26.0871 92.9318C34.8211 97.976 52.6077 83.5155 65.8145 60.6333C79.0213 37.7512 82.6472 15.1124 73.9132 10.0682C65.1791 5.02399 47.3925 19.4845 34.1857 42.3667Z" stroke="#61DAFB" stroke-width="4"/>
</svg>
