<svg width="99" height="94" viewBox="0 0 99 94" fill="none" xmlns="http://www.w3.org/2000/svg">
<path fill-rule="evenodd" clip-rule="evenodd" d="M68.5966 65.6488C72.25 65.2707 75.0216 62.1205 74.8957 58.3403C74.77 54.5604 71.6201 51.5362 67.8407 51.5362H67.5889C63.683 51.6621 60.6596 54.9382 60.7858 58.8444C60.9117 60.7345 61.6676 62.3727 62.8012 63.5065C58.5179 71.9491 51.967 78.1232 42.1404 83.2894C35.4632 86.8177 28.5345 88.0778 21.6055 87.1959C15.9361 86.4396 11.5268 83.9198 8.7546 79.7611C4.72342 73.587 4.34563 66.9086 7.74718 60.2304C10.141 55.442 13.92 51.914 16.3139 50.1499C15.8101 48.5117 15.054 45.7399 14.6762 43.7239C-3.5914 56.9546 -1.70129 74.8471 3.84162 83.2894C7.99903 89.5901 16.4398 93.4962 25.7623 93.4962C28.2818 93.4962 30.8012 93.244 33.321 92.6143C49.4469 89.4638 61.6673 79.8874 68.596 65.6488H68.5966ZM90.7694 50.0242C81.1948 38.8096 67.0849 32.6355 50.9589 32.6355H48.9435C47.8095 30.3675 45.4157 28.855 42.7703 28.855H42.5182C38.6132 28.9809 35.5898 32.257 35.7154 36.1635C35.8413 39.9434 38.9907 42.9676 42.7703 42.9676H43.0222C45.7938 42.8414 48.1876 41.0775 49.1954 38.6833H51.4629C61.0376 38.6833 70.1083 41.4553 78.2975 46.8738C84.5963 51.0321 89.1318 56.4502 91.6512 63.0024C93.7929 68.2949 93.667 73.4608 91.3991 77.8713C87.8719 84.5495 81.9506 88.2038 74.1398 88.2038C69.1006 88.2038 64.3133 86.6915 61.7935 85.5574C60.408 86.8174 57.888 88.8332 56.1244 90.0939C61.542 92.6137 67.0852 94 72.3762 94C84.4707 94 93.4154 87.3215 96.817 80.6434C100.47 73.3348 100.218 60.7345 90.7697 50.0242H90.7694ZM26.7706 67.7905C26.8966 71.5707 30.0463 74.5946 33.8256 74.5946H34.0777C37.9833 74.469 41.0068 71.1926 40.8805 67.2864C40.7549 63.5062 37.6049 60.4823 33.8256 60.4823H33.5737C33.3216 60.4823 32.9435 60.4823 32.6919 60.6079C27.5265 52.0397 25.3848 42.7157 26.141 32.6352C26.6444 25.0748 29.1645 18.5226 33.5737 13.1042C37.2271 8.44203 44.2821 6.17379 49.0694 6.04814C62.4231 5.79595 68.0923 22.4284 68.4704 29.1072C70.1083 29.485 72.8796 30.3672 74.7697 30.9973C73.2577 10.5846 60.6596 0 48.5657 0C37.2271 0 26.7706 8.19043 22.6129 20.287C16.8179 36.4157 20.5975 51.914 27.6524 64.1368C27.0228 65.0188 26.6447 66.4048 26.7706 67.7911V67.7908V67.7905Z" fill="#764ABC"/>
</svg>
